<svg xmlns="http://www.w3.org/2000/svg" width="1200" height="900" viewBox="0 0 1200 900">
  <defs>
    <!-- Dark background gradient -->
    <radialGradient id="bgGrad" cx="50%" cy="50%" r="70%">
      <stop offset="0%" stop-color="#0a0a1a"/>
      <stop offset="100%" stop-color="#000008"/>
    </radialGradient>

    <!-- Neon ring gradient blue → pink -->
    <linearGradient id="ringGrad" x1="0%" y1="0%" x2="100%" y2="100%">
      <stop offset="0%" stop-color="#00c8ff"/>
      <stop offset="50%" stop-color="#8a2be2"/>
      <stop offset="100%" stop-color="#ff2d78"/>
    </linearGradient>

    <!-- Fader neon glow -->
    <linearGradient id="faderGrad" x1="0%" y1="0%" x2="0%" y2="100%">
      <stop offset="0%" stop-color="#00fff7"/>
      <stop offset="60%" stop-color="#00a8ff"/>
      <stop offset="100%" stop-color="#ff00aa"/>
    </linearGradient>

    <!-- Master fader glow -->
    <linearGradient id="masterFaderGrad" x1="0%" y1="0%" x2="0%" y2="100%">
      <stop offset="0%" stop-color="#ffffff"/>
      <stop offset="40%" stop-color="#00ffcc"/>
      <stop offset="100%" stop-color="#ff2d78"/>
    </linearGradient>

    <!-- LR meter gradient -->
    <linearGradient id="lrMeter" x1="0%" y1="0%" x2="0%" y2="100%">
      <stop offset="0%" stop-color="#ff2200"/>
      <stop offset="20%" stop-color="#ffaa00"/>
      <stop offset="60%" stop-color="#00ff88"/>
      <stop offset="100%" stop-color="#006622"/>
    </linearGradient>

    <!-- StageFlow text gradient -->
    <linearGradient id="sfGrad" x1="0%" y1="0%" x2="100%" y2="0%">
      <stop offset="0%" stop-color="#00c8ff"/>
      <stop offset="100%" stop-color="#ff8c00"/>
    </linearGradient>

    <!-- Touchscreen gradient -->
    <linearGradient id="screenGrad" x1="0%" y1="0%" x2="0%" y2="100%">
      <stop offset="0%" stop-color="#0a1a2e"/>
      <stop offset="100%" stop-color="#050d1a"/>
    </linearGradient>

    <!-- FX1 reverb glow -->
    <radialGradient id="fx1Grad" cx="50%" cy="50%" r="50%">
      <stop offset="0%" stop-color="#4444ff" stop-opacity="0.8"/>
      <stop offset="100%" stop-color="#220066" stop-opacity="0"/>
    </radialGradient>
    <!-- FX2 delay glow -->
    <radialGradient id="fx2Grad" cx="50%" cy="50%" r="50%">
      <stop offset="0%" stop-color="#ff6622" stop-opacity="0.8"/>
      <stop offset="100%" stop-color="#550000" stop-opacity="0"/>
    </radialGradient>
    <!-- FX3 chorus glow -->
    <radialGradient id="fx3Grad" cx="50%" cy="50%" r="50%">
      <stop offset="0%" stop-color="#00ffee" stop-opacity="0.8"/>
      <stop offset="100%" stop-color="#003333" stop-opacity="0"/>
    </radialGradient>
    <!-- FX4 doubler glow -->
    <radialGradient id="fx4Grad" cx="50%" cy="50%" r="50%">
      <stop offset="0%" stop-color="#cc44ff" stop-opacity="0.8"/>
      <stop offset="100%" stop-color="#330044" stop-opacity="0"/>
    </radialGradient>

    <!-- Filters -->
    <filter id="neonBlur" x="-50%" y="-50%" width="200%" height="200%">
      <feGaussianBlur stdDeviation="3" result="blur"/>
      <feMerge><feMergeNode in="blur"/><feMergeNode in="SourceGraphic"/></feMerge>
    </filter>
    <filter id="strongGlow" x="-80%" y="-80%" width="260%" height="260%">
      <feGaussianBlur stdDeviation="6" result="blur"/>
      <feMerge><feMergeNode in="blur"/><feMergeNode in="SourceGraphic"/></feMerge>
    </filter>
    <filter id="textGlow">
      <feGaussianBlur stdDeviation="4" result="blur"/>
      <feMerge><feMergeNode in="blur"/><feMergeNode in="blur"/><feMergeNode in="SourceGraphic"/></feMerge>
    </filter>
    <filter id="softGlow">
      <feGaussianBlur stdDeviation="8" result="blur"/>
      <feMerge><feMergeNode in="blur"/><feMergeNode in="SourceGraphic"/></feMerge>
    </filter>
    <filter id="ringGlow">
      <feGaussianBlur stdDeviation="10" result="blur"/>
      <feMerge><feMergeNode in="blur"/><feMergeNode in="blur"/><feMergeNode in="SourceGraphic"/></feMerge>
    </filter>
  </defs>

  <!-- Background -->
  <rect width="1200" height="900" fill="url(#bgGrad)"/>

  <!-- Airflow light streaks -->
  <g opacity="0.18" filter="url(#softGlow)">
    <line x1="0" y1="200" x2="1200" y2="160" stroke="#00c8ff" stroke-width="1.5"/>
    <line x1="0" y1="320" x2="1200" y2="270" stroke="#8a2be2" stroke-width="1"/>
    <line x1="0" y1="440" x2="1200" y2="400" stroke="#00c8ff" stroke-width="2"/>
    <line x1="0" y1="560" x2="1200" y2="530" stroke="#ff2d78" stroke-width="1"/>
    <line x1="0" y1="680" x2="1200" y2="640" stroke="#8a2be2" stroke-width="1.5"/>
    <line x1="100" y1="100" x2="1100" y2="780" stroke="#00c8ff" stroke-width="0.8" opacity="0.5"/>
    <line x1="1100" y1="100" x2="100" y2="780" stroke="#ff2d78" stroke-width="0.8" opacity="0.5"/>
    <!-- Horizontal fast streaks -->
    <rect x="50" y="305" width="300" height="1" fill="#00ffcc" rx="1" opacity="0.6"/>
    <rect x="850" y="285" width="280" height="1" fill="#00ffcc" rx="1" opacity="0.6"/>
    <rect x="120" y="490" width="200" height="1" fill="#ff2d78" rx="1" opacity="0.5"/>
    <rect x="880" y="475" width="190" height="1" fill="#ff2d78" rx="1" opacity="0.5"/>
  </g>

  <!-- Outer neon ring glow (shadow) -->
  <circle cx="600" cy="430" r="418" fill="none" stroke="url(#ringGrad)" stroke-width="18" opacity="0.25" filter="url(#ringGlow)"/>
  <!-- Outer neon ring -->
  <circle cx="600" cy="430" r="415" fill="none" stroke="url(#ringGrad)" stroke-width="4" filter="url(#ringGlow)"/>
  <!-- Inner ring accent -->
  <circle cx="600" cy="430" r="406" fill="none" stroke="url(#ringGrad)" stroke-width="1" opacity="0.4"/>

  <!-- Mixer body panel -->
  <rect x="118" y="85" width="964" height="650" rx="18" fill="#0d0d20" stroke="#1a1a40" stroke-width="1.5"/>
  <!-- Mixer surface sheen -->
  <rect x="118" y="85" width="964" height="18" rx="9" fill="#1a1a44" opacity="0.6"/>

  <!-- ===== TOUCHSCREEN DISPLAY (top center) ===== -->
  <rect x="310" y="98" width="580" height="145" rx="10" fill="url(#screenGrad)" stroke="#00c8ff" stroke-width="1.5" filter="url(#neonBlur)"/>
  <!-- Screen inner bezel -->
  <rect x="316" y="104" width="568" height="133" rx="7" fill="#050d1a" stroke="#0a2040" stroke-width="1"/>

  <!-- EQ curve visualization (left portion) -->
  <g transform="translate(325,110)">
    <text x="0" y="10" fill="#00c8ff" font-size="8" font-family="monospace" opacity="0.7">EQ CURVE</text>
    <!-- Grid lines -->
    <line x1="0" y1="18" x2="170" y2="18" stroke="#0a2040" stroke-width="0.5"/>
    <line x1="0" y1="38" x2="170" y2="38" stroke="#0a2040" stroke-width="0.5"/>
    <line x1="0" y1="58" x2="170" y2="58" stroke="#0a2040" stroke-width="0.5"/>
    <line x1="0" y1="78" x2="170" y2="78" stroke="#0a2040" stroke-width="0.5"/>
    <line x1="0" y1="98" x2="170" y2="98" stroke="#0a2040" stroke-width="0.5"/>
    <!-- Center line -->
    <line x1="0" y1="58" x2="170" y2="58" stroke="#1a3050" stroke-width="1"/>
    <!-- EQ curve path -->
    <path d="M0,58 C10,58 18,38 30,30 C42,22 50,28 60,40 C70,52 78,52 90,48 C102,44 112,22 125,18 C138,14 148,42 160,50 C168,54 170,55 170,55" 
          fill="none" stroke="#00ff88" stroke-width="2" filter="url(#neonBlur)"/>
    <path d="M0,58 C10,58 18,38 30,30 C42,22 50,28 60,40 C70,52 78,52 90,48 C102,44 112,22 125,18 C138,14 148,42 160,50 C168,54 170,55 170,55" 
          fill="none" stroke="#00ff88" stroke-width="1" opacity="0.4"/>
    <!-- Freq markers -->
    <text x="20" y="112" fill="#334" font-size="7" font-family="monospace">80</text>
    <text x="50" y="112" fill="#334" font-size="7" font-family="monospace">250</text>
    <text x="82" y="112" fill="#334" font-size="7" font-family="monospace">1k</text>
    <text x="114" y="112" fill="#334" font-size="7" font-family="monospace">4k</text>
    <text x="146" y="112" fill="#334" font-size="7" font-family="monospace">16k</text>
  </g>

  <!-- Channel overview grid (center portion) -->
  <g transform="translate(508,110)">
    <text x="0" y="10" fill="#ff9900" font-size="8" font-family="monospace" opacity="0.7">CH OVERVIEW</text>
    <!-- 12 mini channel bars -->
    <g>
      <!-- ch1 -->
      <rect x="0" y="20" width="12" height="80" rx="2" fill="#0a1520" stroke="#1a3050" stroke-width="0.5"/>
      <rect x="1" y="55" width="10" height="44" rx="1" fill="#00c8ff" opacity="0.85" filter="url(#neonBlur)"/>
      <!-- ch2 -->
      <rect x="14" y="20" width="12" height="80" rx="2" fill="#0a1520" stroke="#1a3050" stroke-width="0.5"/>
      <rect x="15" y="40" width="10" height="59" rx="1" fill="#00c8ff" opacity="0.75"/>
      <!-- ch3 -->
      <rect x="28" y="20" width="12" height="80" rx="2" fill="#0a1520" stroke="#1a3050" stroke-width="0.5"/>
      <rect x="29" y="48" width="10" height="51" rx="1" fill="#00c8ff" opacity="0.8"/>
      <!-- ch4 -->
      <rect x="42" y="20" width="12" height="80" rx="2" fill="#0a1520" stroke="#1a3050" stroke-width="0.5"/>
      <rect x="43" y="30" width="10" height="69" rx="1" fill="#00ff88" opacity="0.9"/>
      <!-- ch5 -->
      <rect x="56" y="20" width="12" height="80" rx="2" fill="#0a1520" stroke="#1a3050" stroke-width="0.5"/>
      <rect x="57" y="44" width="10" height="55" rx="1" fill="#00c8ff" opacity="0.7"/>
      <!-- ch6 -->
      <rect x="70" y="20" width="12" height="80" rx="2" fill="#0a1520" stroke="#1a3050" stroke-width="0.5"/>
      <rect x="71" y="36" width="10" height="63" rx="1" fill="#ff9900" opacity="0.8"/>
      <!-- ch7 -->
      <rect x="84" y="20" width="12" height="80" rx="2" fill="#0a1520" stroke="#1a3050" stroke-width="0.5"/>
      <rect x="85" y="52" width="10" height="47" rx="1" fill="#00c8ff" opacity="0.75"/>
      <!-- ch8 -->
      <rect x="98" y="20" width="12" height="80" rx="2" fill="#0a1520" stroke="#1a3050" stroke-width="0.5"/>
      <rect x="99" y="28" width="10" height="71" rx="1" fill="#00ff88" opacity="0.85"/>
      <!-- ch9 -->
      <rect x="112" y="20" width="12" height="80" rx="2" fill="#0a1520" stroke="#1a3050" stroke-width="0.5"/>
      <rect x="113" y="45" width="10" height="54" rx="1" fill="#00c8ff" opacity="0.7"/>
      <!-- ch10 -->
      <rect x="126" y="20" width="12" height="80" rx="2" fill="#0a1520" stroke="#1a3050" stroke-width="0.5"/>
      <rect x="127" y="38" width="10" height="61" rx="1" fill="#ff2d78" opacity="0.8"/>
      <!-- ch11 -->
      <rect x="140" y="20" width="12" height="80" rx="2" fill="#0a1520" stroke="#1a3050" stroke-width="0.5"/>
      <rect x="141" y="60" width="10" height="39" rx="1" fill="#00c8ff" opacity="0.7"/>
      <!-- ch12 -->
      <rect x="154" y="20" width="12" height="80" rx="2" fill="#0a1520" stroke="#1a3050" stroke-width="0.5"/>
      <rect x="155" y="33" width="10" height="66" rx="1" fill="#00c8ff" opacity="0.85"/>
      <!-- Channel number labels -->
      <text x="3" y="113" fill="#334466" font-size="6" font-family="monospace">1</text>
      <text x="17" y="113" fill="#334466" font-size="6" font-family="monospace">2</text>
      <text x="31" y="113" fill="#334466" font-size="6" font-family="monospace">3</text>
      <text x="45" y="113" fill="#334466" font-size="6" font-family="monospace">4</text>
      <text x="59" y="113" fill="#334466" font-size="6" font-family="monospace">5</text>
      <text x="73" y="113" fill="#334466" font-size="6" font-family="monospace">6</text>
      <text x="87" y="113" fill="#334466" font-size="6" font-family="monospace">7</text>
      <text x="101" y="113" fill="#334466" font-size="6" font-family="monospace">8</text>
      <text x="114" y="113" fill="#334466" font-size="6" font-family="monospace">9</text>
      <text x="127" y="113" fill="#334466" font-size="6" font-family="monospace">10</text>
      <text x="141" y="113" fill="#334466" font-size="6" font-family="monospace">11</text>
      <text x="155" y="113" fill="#334466" font-size="6" font-family="monospace">12</text>
    </g>
  </g>

  <!-- FX visualizer (right portion of screen) -->
  <g transform="translate(694,110)">
    <text x="0" y="10" fill="#cc44ff" font-size="8" font-family="monospace" opacity="0.7">FX VISUAL</text>
    <!-- Reverb swirl -->
    <circle cx="30" cy="55" r="28" fill="none" stroke="#4444ff" stroke-width="1" opacity="0.5"/>
    <circle cx="30" cy="55" r="20" fill="none" stroke="#6666ff" stroke-width="1.5" opacity="0.6"/>
    <circle cx="30" cy="55" r="12" fill="none" stroke="#8888ff" stroke-width="2" opacity="0.7"/>
    <circle cx="30" cy="55" r="5" fill="#aaaaff" opacity="0.8" filter="url(#neonBlur)"/>
    <!-- Delay pulses -->
    <circle cx="80" cy="55" r="6" fill="none" stroke="#ff8844" stroke-width="2" filter="url(#neonBlur)"/>
    <circle cx="80" cy="55" r="14" fill="none" stroke="#ff6622" stroke-width="1.5" opacity="0.6"/>
    <circle cx="80" cy="55" r="22" fill="none" stroke="#ff4400" stroke-width="1" opacity="0.3"/>
    <circle cx="80" cy="55" r="3" fill="#ffaa66" filter="url(#neonBlur)"/>
    <!-- Chorus shimmer lines -->
    <g opacity="0.85">
      <line x1="110" y1="30" x2="170" y2="35" stroke="#00ffee" stroke-width="1.5" filter="url(#neonBlur)"/>
      <line x1="110" y1="42" x2="170" y2="45" stroke="#00ddcc" stroke-width="1"/>
      <line x1="110" y1="54" x2="170" y2="55" stroke="#00ffee" stroke-width="2" filter="url(#neonBlur)"/>
      <line x1="110" y1="66" x2="170" y2="65" stroke="#00ddcc" stroke-width="1"/>
      <line x1="110" y1="78" x2="170" y2="75" stroke="#00ffee" stroke-width="1.5" filter="url(#neonBlur)"/>
    </g>
  </g>

  <!-- ===== 12 CHANNEL STRIPS ===== -->
  <!-- Macro to generate one channel strip. Using individual groups per channel -->
  <!-- Channel strip template: x offset increments by 62px. Start at x=128 -->
  <!-- We'll use a helper approach: define one detailed strip and replicate with transforms -->

  <!-- CHANNEL STRIP MACRO (repeated 12 times with translate) -->
  <!-- Strip contents: gain knob, 4-band EQ LEDs, compressor LED, pan knob, mute/solo, fader -->
  <!-- Colors cycle: channels 1-4 cyan, 5-8 green, 9-12 orange/pink -->

  <!-- We define each strip group. Strip width = 62px, start x=128 -->

  <!-- Helper: define a single strip symbol -->
  <defs>
    <g id="strip-base">
      <!-- Strip background -->
      <rect x="0" y="0" width="58" height="555" rx="5" fill="#0e1020" stroke="#1a2040" stroke-width="1"/>
      <!-- Gain knob area -->
      <circle cx="29" cy="28" r="14" fill="#141428" stroke="#2a2a50" stroke-width="1.5"/>
      <circle cx="29" cy="28" r="10" fill="#0a0a20" stroke="#00c8ff" stroke-width="1" filter="url(#neonBlur)"/>
      <line x1="29" y1="18" x2="29" y2="23" stroke="#00c8ff" stroke-width="2.5" filter="url(#neonBlur)"/>
      <text x="29" y="49" fill="#556" font-size="7" font-family="monospace" text-anchor="middle">GAIN</text>

      <!-- 4-band EQ LEDs (HF, HMF, LMF, LF) -->
      <!-- HF - blue -->
      <rect x="4" y="54" width="50" height="12" rx="2" fill="#080818"/>
      <circle cx="14" cy="60" r="4" fill="#0044ff" filter="url(#neonBlur)" opacity="0.9"/>
      <circle cx="25" cy="60" r="4" fill="#0066ff" filter="url(#neonBlur)" opacity="0.7"/>
      <circle cx="36" cy="60" r="4" fill="#0088ff" filter="url(#neonBlur)" opacity="0.5"/>
      <circle cx="47" cy="60" r="4" fill="#00aaff" filter="url(#neonBlur)" opacity="0.3"/>
      <text x="5" y="73" fill="#334" font-size="6" font-family="monospace">HF</text>
      <!-- HMF - yellow/green -->
      <rect x="4" y="76" width="50" height="12" rx="2" fill="#080818"/>
      <circle cx="14" cy="82" r="4" fill="#00ff44" filter="url(#neonBlur)" opacity="0.9"/>
      <circle cx="25" cy="82" r="4" fill="#44ff44" filter="url(#neonBlur)" opacity="0.7"/>
      <circle cx="36" cy="82" r="4" fill="#88ff44" filter="url(#neonBlur)" opacity="0.5"/>
      <circle cx="47" cy="82" r="4" fill="#aaff22" filter="url(#neonBlur)" opacity="0.3"/>
      <text x="5" y="95" fill="#334" font-size="6" font-family="monospace">HMF</text>
      <!-- LMF - orange -->
      <rect x="4" y="98" width="50" height="12" rx="2" fill="#080818"/>
      <circle cx="14" cy="104" r="4" fill="#ff8800" filter="url(#neonBlur)" opacity="0.9"/>
      <circle cx="25" cy="104" r="4" fill="#ffaa00" filter="url(#neonBlur)" opacity="0.7"/>
      <circle cx="36" cy="104" r="4" fill="#ffcc00" filter="url(#neonBlur)" opacity="0.5"/>
      <circle cx="47" cy="104" r="4" fill="#ffee00" filter="url(#neonBlur)" opacity="0.3"/>
      <text x="5" y="117" fill="#334" font-size="6" font-family="monospace">LMF</text>
      <!-- LF - red/pink -->
      <rect x="4" y="120" width="50" height="12" rx="2" fill="#080818"/>
      <circle cx="14" cy="126" r="4" fill="#ff0044" filter="url(#neonBlur)" opacity="0.9"/>
      <circle cx="25" cy="126" r="4" fill="#ff2266" filter="url(#neonBlur)" opacity="0.7"/>
      <circle cx="36" cy="126" r="4" fill="#ff4488" filter="url(#neonBlur)" opacity="0.5"/>
      <circle cx="47" cy="126" r="4" fill="#ff66aa" filter="url(#neonBlur)" opacity="0.3"/>
      <text x="5" y="139" fill="#334" font-size="6" font-family="monospace">LF</text>

      <!-- Compressor LED -->
      <rect x="4" y="143" width="50" height="12" rx="2" fill="#080818"/>
      <text x="7" y="152" fill="#334" font-size="6" font-family="monospace">COMP</text>
      <circle cx="44" cy="149" r="5" fill="#00ff88" filter="url(#neonBlur)" opacity="0.85"/>

      <!-- Pan knob -->
      <circle cx="29" cy="175" r="12" fill="#141428" stroke="#2a2a50" stroke-width="1.5"/>
      <circle cx="29" cy="175" r="8" fill="#0a0a20" stroke="#ff2d78" stroke-width="1" filter="url(#neonBlur)"/>
      <line x1="29" y1="164" x2="29" y2="169" stroke="#ff2d78" stroke-width="2" filter="url(#neonBlur)"/>
      <text x="29" y="194" fill="#556" font-size="7" font-family="monospace" text-anchor="middle">PAN</text>

      <!-- Mute button -->
      <rect x="4" y="198" width="22" height="14" rx="3" fill="#330000" stroke="#ff2200" stroke-width="1"/>
      <text x="15" y="208" fill="#ff4444" font-size="7" font-family="monospace" text-anchor="middle">M</text>
      <!-- Solo button -->
      <rect x="32" y="198" width="22" height="14" rx="3" fill="#002200" stroke="#00ff44" stroke-width="1"/>
      <text x="43" y="208" fill="#00ff44" font-size="7" font-family="monospace" text-anchor="middle">S</text>

      <!-- Fader track -->
      <rect x="23" y="220" width="12" height="300" rx="6" fill="#07070f" stroke="#1a2040" stroke-width="1"/>
      <!-- Fader glow trail -->
      <rect x="24" y="340" width="10" height="180" rx="5" fill="url(#faderGrad)" opacity="0.4"/>
      <!-- Fader knob -->
      <rect x="17" y="325" width="24" height="16" rx="4" fill="#1a1a38" stroke="#00c8ff" stroke-width="1.5" filter="url(#neonBlur)"/>
      <line x1="21" y1="333" x2="41" y2="333" stroke="#00c8ff" stroke-width="1.5"/>
      <!-- dB scale marks -->
      <line x1="19" y1="268" x2="23" y2="268" stroke="#334" stroke-width="0.5"/>
      <text x="12" y="271" fill="#334" font-size="5" font-family="monospace" text-anchor="end">0</text>
      <line x1="19" y1="303" x2="23" y2="303" stroke="#334" stroke-width="0.5"/>
      <text x="12" y="306" fill="#334" font-size="5" font-family="monospace" text-anchor="end">-6</text>
      <line x1="19" y1="345" x2="23" y2="345" stroke="#334" stroke-width="0.5"/>
      <line x1="19" y1="400" x2="23" y2="400" stroke="#334" stroke-width="0.5"/>
      <text x="12" y="403" fill="#334" font-size="5" font-family="monospace" text-anchor="end">-∞</text>

      <!-- Level meter (thin, beside fader) -->
      <rect x="38" y="220" width="7" height="300" rx="2" fill="#07070f"/>
      <rect x="39" y="305" width="5" height="215" rx="1" fill="url(#lrMeter)" opacity="0.7"/>

      <!-- Channel number label -->
      <rect x="4" y="528" width="50" height="18" rx="3" fill="#0a0a1e"/>
    </g>
  </defs>

  <!-- Render 12 channels -->
  <!-- Ch 1 -->
  <g transform="translate(128,248)">
    <use href="#strip-base"/>
    <text x="29" y="542" fill="#00c8ff" font-size="8" font-family="monospace" text-anchor="middle" filter="url(#neonBlur)">CH 1</text>
  </g>
  <!-- Ch 2 -->
  <g transform="translate(190,248)">
    <use href="#strip-base"/>
    <text x="29" y="542" fill="#00c8ff" font-size="8" font-family="monospace" text-anchor="middle" filter="url(#neonBlur)">CH 2</text>
  </g>
  <!-- Ch 3 -->
  <g transform="translate(252,248)">
    <use href="#strip-base"/>
    <text x="29" y="542" fill="#00c8ff" font-size="8" font-family="monospace" text-anchor="middle" filter="url(#neonBlur)">CH 3</text>
  </g>
  <!-- Ch 4 -->
  <g transform="translate(314,248)">
    <use href="#strip-base"/>
    <text x="29" y="542" fill="#00c8ff" font-size="8" font-family="monospace" text-anchor="middle" filter="url(#neonBlur)">CH 4</text>
  </g>
  <!-- Ch 5 -->
  <g transform="translate(376,248)">
    <use href="#strip-base"/>
    <!-- Override fader knob glow to green -->
    <rect x="17" y="325" width="24" height="16" rx="4" fill="#1a1a38" stroke="#00ff88" stroke-width="1.5" filter="url(#neonBlur)"/>
    <text x="29" y="542" fill="#00ff88" font-size="8" font-family="monospace" text-anchor="middle" filter="url(#neonBlur)">CH 5</text>
  </g>
  <!-- Ch 6 -->
  <g transform="translate(438,248)">
    <use href="#strip-base"/>
    <rect x="17" y="295" width="24" height="16" rx="4" fill="#1a1a38" stroke="#00ff88" stroke-width="1.5" filter="url(#neonBlur)"/>
    <text x="29" y="542" fill="#00ff88" font-size="8" font-family="monospace" text-anchor="middle" filter="url(#neonBlur)">CH 6</text>
  </g>
  <!-- Ch 7 -->
  <g transform="translate(500,248)">
    <use href="#strip-base"/>
    <rect x="17" y="350" width="24" height="16" rx="4" fill="#1a1a38" stroke="#00ff88" stroke-width="1.5" filter="url(#neonBlur)"/>
    <text x="29" y="542" fill="#00ff88" font-size="8" font-family="monospace" text-anchor="middle" filter="url(#neonBlur)">CH 7</text>
  </g>
  <!-- Ch 8 -->
  <g transform="translate(562,248)">
    <use href="#strip-base"/>
    <rect x="17" y="310" width="24" height="16" rx="4" fill="#1a1a38" stroke="#00ff88" stroke-width="1.5" filter="url(#neonBlur)"/>
    <text x="29" y="542" fill="#00ff88" font-size="8" font-family="monospace" text-anchor="middle" filter="url(#neonBlur)">CH 8</text>
  </g>
  <!-- Ch 9 -->
  <g transform="translate(624,248)">
    <use href="#strip-base"/>
    <rect x="17" y="340" width="24" height="16" rx="4" fill="#1a1a38" stroke="#ff9900" stroke-width="1.5" filter="url(#neonBlur)"/>
    <text x="29" y="542" fill="#ff9900" font-size="8" font-family="monospace" text-anchor="middle" filter="url(#neonBlur)">CH 9</text>
  </g>
  <!-- Ch 10 -->
  <g transform="translate(686,248)">
    <use href="#strip-base"/>
    <rect x="17" y="360" width="24" height="16" rx="4" fill="#1a1a38" stroke="#ff9900" stroke-width="1.5" filter="url(#neonBlur)"/>
    <text x="29" y="542" fill="#ff9900" font-size="8" font-family="monospace" text-anchor="middle" filter="url(#neonBlur)">CH 10</text>
  </g>
  <!-- Ch 11 -->
  <g transform="translate(748,248)">
    <use href="#strip-base"/>
    <rect x="17" y="380" width="24" height="16" rx="4" fill="#1a1a38" stroke="#ff2d78" stroke-width="1.5" filter="url(#neonBlur)"/>
    <text x="29" y="542" fill="#ff2d78" font-size="8" font-family="monospace" text-anchor="middle" filter="url(#neonBlur)">CH 11</text>
  </g>
  <!-- Ch 12 -->
  <g transform="translate(810,248)">
    <use href="#strip-base"/>
    <rect x="17" y="290" width="24" height="16" rx="4" fill="#1a1a38" stroke="#ff2d78" stroke-width="1.5" filter="url(#neonBlur)"/>
    <text x="29" y="542" fill="#ff2d78" font-size="8" font-family="monospace" text-anchor="middle" filter="url(#neonBlur)">CH 12</text>
  </g>

  <!-- Divider between channels and master -->
  <rect x="878" y="248" width="2" height="555" rx="1" fill="#00c8ff" opacity="0.3"/>

  <!-- ===== MASTER SECTION ===== -->
  <g transform="translate(884,248)">
    <rect x="0" y="0" width="188" height="555" rx="8" fill="#090914" stroke="#2a2040" stroke-width="1.5"/>
    <text x="94" y="18" fill="#ffffff" font-size="10" font-family="monospace" text-anchor="middle" letter-spacing="3" filter="url(#neonBlur)">MASTER</text>

    <!-- Main LR Meters -->
    <text x="14" y="35" fill="#aaa" font-size="7" font-family="monospace">L</text>
    <text x="28" y="35" fill="#aaa" font-size="7" font-family="monospace">R</text>

    <!-- L meter -->
    <rect x="8" y="38" width="14" height="280" rx="3" fill="#07070f" stroke="#1a2040" stroke-width="0.5"/>
    <rect x="9" y="100" width="12" height="218" rx="2" fill="url(#lrMeter)" opacity="0.9" filter="url(#neonBlur)"/>
    <!-- Clip indicator -->
    <rect x="9" y="40" width="12" height="8" rx="1" fill="#ff0000" opacity="0.3"/>

    <!-- R meter -->
    <rect x="24" y="38" width="14" height="280" rx="3" fill="#07070f" stroke="#1a2040" stroke-width="0.5"/>
    <rect x="25" y="115" width="12" height="203" rx="2" fill="url(#lrMeter)" opacity="0.9" filter="url(#neonBlur)"/>
    <rect x="25" y="40" width="12" height="8" rx="1" fill="#ff0000" opacity="0.3"/>

    <!-- dB scale -->
    <text x="41" y="50" fill="#334" font-size="6" font-family="monospace">+6</text>
    <text x="41" y="90" fill="#334" font-size="6" font-family="monospace">0</text>
    <text x="41" y="140" fill="#334" font-size="6" font-family="monospace">-6</text>
    <text x="41" y="200" fill="#334" font-size="6" font-family="monospace">-18</text>
    <text x="41" y="290" fill="#334" font-size="6" font-family="monospace">-∞</text>

    <!-- Bus meters (Bus 1-6) -->
    <text x="62" y="35" fill="#00c8ff" font-size="7" font-family="monospace">BUS</text>
    <!-- Bus 1 -->
    <rect x="60" y="38" width="10" height="280" rx="2" fill="#07070f" stroke="#1a2040" stroke-width="0.5"/>
    <rect x="61" y="120" width="8" height="198" rx="1" fill="#00c8ff" opacity="0.7" filter="url(#neonBlur)"/>
    <text x="63" y="327" fill="#334" font-size="5" font-family="monospace">B1</text>
    <!-- Bus 2 -->
    <rect x="72" y="38" width="10" height="280" rx="2" fill="#07070f" stroke="#1a2040" stroke-width="0.5"/>
    <rect x="73" y="100" width="8" height="218" rx="1" fill="#00c8ff" opacity="0.65" filter="url(#neonBlur)"/>
    <text x="75" y="327" fill="#334" font-size="5" font-family="monospace">B2</text>
    <!-- Bus 3 -->
    <rect x="84" y="38" width="10" height="280" rx="2" fill="#07070f" stroke="#1a2040" stroke-width="0.5"/>
    <rect x="85" y="145" width="8" height="173" rx="1" fill="#00ff88" opacity="0.7" filter="url(#neonBlur)"/>
    <text x="87" y="327" fill="#334" font-size="5" font-family="monospace">B3</text>
    <!-- Bus 4 -->
    <rect x="96" y="38" width="10" height="280" rx="2" fill="#07070f" stroke="#1a2040" stroke-width="0.5"/>
    <rect x="97" y="90" width="8" height="228" rx="1" fill="#00ff88" opacity="0.65" filter="url(#neonBlur)"/>
    <text x="99" y="327" fill="#334" font-size="5" font-family="monospace">B4</text>
    <!-- Bus 5 -->
    <rect x="108" y="38" width="10" height="280" rx="2" fill="#07070f" stroke="#1a2040" stroke-width="0.5"/>
    <rect x="109" y="160" width="8" height="158" rx="1" fill="#ff9900" opacity="0.7" filter="url(#neonBlur)"/>
    <text x="111" y="327" fill="#334" font-size="5" font-family="monospace">B5</text>
    <!-- Bus 6 -->
    <rect x="120" y="38" width="10" height="280" rx="2" fill="#07070f" stroke="#1a2040" stroke-width="0.5"/>
    <rect x="121" y="130" width="8" height="188" rx="1" fill="#ff9900" opacity="0.65" filter="url(#neonBlur)"/>
    <text x="123" y="327" fill="#334" font-size="5" font-family="monospace">B6</text>

    <!-- FX Return meters -->
    <text x="138" y="35" fill="#cc44ff" font-size="7" font-family="monospace">FX RTN</text>
    <!-- FX1 ret -->
    <rect x="136" y="38" width="10" height="280" rx="2" fill="#07070f" stroke="#1a2040" stroke-width="0.5"/>
    <rect x="137" y="180" width="8" height="138" rx="1" fill="#4444ff" opacity="0.8" filter="url(#neonBlur)"/>
    <text x="139" y="327" fill="#334" font-size="5" font-family="monospace">R1</text>
    <!-- FX2 ret -->
    <rect x="148" y="38" width="10" height="280" rx="2" fill="#07070f" stroke="#1a2040" stroke-width="0.5"/>
    <rect x="149" y="200" width="8" height="118" rx="1" fill="#ff6622" opacity="0.8" filter="url(#neonBlur)"/>
    <text x="151" y="327" fill="#334" font-size="5" font-family="monospace">R2</text>
    <!-- FX3 ret -->
    <rect x="160" y="38" width="10" height="280" rx="2" fill="#07070f" stroke="#1a2040" stroke-width="0.5"/>
    <rect x="161" y="170" width="8" height="148" rx="1" fill="#00ffee" opacity="0.7" filter="url(#neonBlur)"/>
    <text x="163" y="327" fill="#334" font-size="5" font-family="monospace">R3</text>
    <!-- FX4 ret -->
    <rect x="172" y="38" width="10" height="280" rx="2" fill="#07070f" stroke="#1a2040" stroke-width="0.5"/>
    <rect x="173" y="210" width="8" height="108" rx="1" fill="#cc44ff" opacity="0.8" filter="url(#neonBlur)"/>
    <text x="175" y="327" fill="#334" font-size="5" font-family="monospace">R4</text>

    <!-- Master fader -->
    <text x="94" y="345" fill="#ffffff" font-size="8" font-family="monospace" text-anchor="middle">MASTER FADER</text>
    <!-- Fader track -->
    <rect x="80" y="352" width="14" height="180" rx="7" fill="#07070f" stroke="#2a2040" stroke-width="1"/>
    <!-- Glow trail -->
    <rect x="81" y="432" width="12" height="100" rx="6" fill="url(#masterFaderGrad)" opacity="0.5"/>
    <!-- Fader knob -->
    <rect x="70" y="418" width="34" height="20" rx="5" fill="#1a1a38" stroke="#ffffff" stroke-width="2" filter="url(#strongGlow)"/>
    <line x1="74" y1="428" x2="100" y2="428" stroke="#ffffff" stroke-width="1.5"/>
    <!-- 0dB mark -->
    <line x1="96" y1="420" x2="100" y2="420" stroke="#00ff88" stroke-width="1.5"/>
    <text x="102" y="424" fill="#00ff88" font-size="7" font-family="monospace">0dB</text>

    <!-- Master section bottom buttons -->
    <rect x="20" y="480" width="44" height="16" rx="4" fill="#220000" stroke="#ff2200" stroke-width="1.5"/>
    <text x="42" y="491" fill="#ff4444" font-size="8" font-family="monospace" text-anchor="middle">MUTE</text>
    <rect x="78" y="480" width="44" height="16" rx="4" fill="#002200" stroke="#00ff44" stroke-width="1.5"/>
    <text x="100" y="491" fill="#00ff44" font-size="8" font-family="monospace" text-anchor="middle">SOLO</text>
    <rect x="136" y="480" width="44" height="16" rx="4" fill="#000022" stroke="#00c8ff" stroke-width="1.5"/>
    <text x="158" y="491" fill="#00c8ff" font-size="8" font-family="monospace" text-anchor="middle">LINK</text>

    <!-- Mono / Dim -->
    <rect x="20" y="502" width="40" height="14" rx="3" fill="#1a1010" stroke="#ff8800" stroke-width="1"/>
    <text x="40" y="512" fill="#ff8800" font-size="7" font-family="monospace" text-anchor="middle">MONO</text>
    <rect x="64" y="502" width="40" height="14" rx="3" fill="#101a10" stroke="#00ff88" stroke-width="1"/>
    <text x="84" y="512" fill="#00ff88" font-size="7" font-family="monospace" text-anchor="middle">DIM</text>

    <!-- Master label -->
    <text x="94" y="540" fill="#ffffff" font-size="9" font-family="monospace" text-anchor="middle" letter-spacing="2" filter="url(#neonBlur)">MAIN L/R</text>
  </g>

  <!-- ===== FX MODULES (right panel) ===== -->
  <!-- FX1: Hall Reverb -->
  <g transform="translate(1082,248)">
    <rect x="0" y="0" width="92" height="128" rx="8" fill="#0a0a1e" stroke="#4444ff" stroke-width="1.5" filter="url(#neonBlur)"/>
    <rect x="0" y="0" width="92" height="128" rx="8" fill="url(#fx1Grad)" opacity="0.15"/>
    <text x="46" y="16" fill="#8888ff" font-size="8" font-family="monospace" text-anchor="middle" letter-spacing="1">FX1</text>
    <text x="46" y="28" fill="#6666dd" font-size="7" font-family="monospace" text-anchor="middle">HALL REVERB</text>
    <!-- Concentric circles (reverb symbol) -->
    <circle cx="46" cy="68" r="30" fill="none" stroke="#4444ff" stroke-width="1" opacity="0.4"/>
    <circle cx="46" cy="68" r="22" fill="none" stroke="#6666ff" stroke-width="1.5" opacity="0.6"/>
    <circle cx="46" cy="68" r="14" fill="none" stroke="#8888ff" stroke-width="2" opacity="0.8" filter="url(#neonBlur)"/>
    <circle cx="46" cy="68" r="6" fill="#aaaaff" opacity="0.9" filter="url(#neonBlur)"/>
    <!-- Level knob -->
    <circle cx="20" cy="110" r="10" fill="#0a0a20" stroke="#4444ff" stroke-width="1.5" filter="url(#neonBlur)"/>
    <line x1="20" y1="100" x2="20" y2="105" stroke="#8888ff" stroke-width="2"/>
    <text x="20" y="126" fill="#446" font-size="6" font-family="monospace" text-anchor="middle">LVL</text>
    <!-- Time knob -->
    <circle cx="46" cy="110" r="10" fill="#0a0a20" stroke="#4444ff" stroke-width="1.5" filter="url(#neonBlur)"/>
    <line x1="53" y1="103" x2="50" y2="107" stroke="#8888ff" stroke-width="2"/>
    <text x="46" y="126" fill="#446" font-size="6" font-family="monospace" text-anchor="middle">TIME</text>
    <!-- Mix knob -->
    <circle cx="72" cy="110" r="10" fill="#0a0a20" stroke="#4444ff" stroke-width="1.5" filter="url(#neonBlur)"/>
    <line x1="72" y1="100" x2="69" y2="104" stroke="#8888ff" stroke-width="2"/>
    <text x="72" y="126" fill="#446" font-size="6" font-family="monospace" text-anchor="middle">MIX</text>
  </g>

  <!-- FX2: Delay -->
  <g transform="translate(1082,388)">
    <rect x="0" y="0" width="92" height="128" rx="8" fill="#1a0a00" stroke="#ff6622" stroke-width="1.5" filter="url(#neonBlur)"/>
    <rect x="0" y="0" width="92" height="128" rx="8" fill="url(#fx2Grad)" opacity="0.15"/>
    <text x="46" y="16" fill="#ff8844" font-size="8" font-family="monospace" text-anchor="middle" letter-spacing="1">FX2</text>
    <text x="46" y="28" fill="#ff6622" font-size="7" font-family="monospace" text-anchor="middle">DELAY</text>
    <!-- Pulsing rings -->
    <circle cx="46" cy="65" r="28" fill="none" stroke="#ff4400" stroke-width="1" opacity="0.3"/>
    <circle cx="46" cy="65" r="20" fill="none" stroke="#ff6622" stroke-width="1.5" opacity="0.5"/>
    <circle cx="46" cy="65" r="12" fill="none" stroke="#ff8844" stroke-width="2" opacity="0.8" filter="url(#neonBlur)"/>
    <circle cx="46" cy="65" r="5" fill="#ffaa66" opacity="0.95" filter="url(#neonBlur)"/>
    <!-- Echo dots -->
    <circle cx="72" cy="55" r="3" fill="#ff6622" opacity="0.6"/>
    <circle cx="80" cy="50" r="2" fill="#ff6622" opacity="0.4"/>
    <circle cx="86" cy="46" r="1.5" fill="#ff6622" opacity="0.2"/>
    <circle cx="20" cy="55" r="3" fill="#ff6622" opacity="0.6"/>
    <circle cx="12" cy="50" r="2" fill="#ff6622" opacity="0.4"/>
    <circle cx="6" cy="46" r="1.5" fill="#ff6622" opacity="0.2"/>
    <!-- Knobs -->
    <circle cx="20" cy="110" r="10" fill="#100500" stroke="#ff6622" stroke-width="1.5" filter="url(#neonBlur)"/>
    <line x1="20" y1="100" x2="20" y2="105" stroke="#ffaa66" stroke-width="2"/>
    <text x="20" y="126" fill="#642" font-size="6" font-family="monospace" text-anchor="middle">TIME</text>
    <circle cx="46" cy="110" r="10" fill="#100500" stroke="#ff6622" stroke-width="1.5" filter="url(#neonBlur)"/>
    <line x1="53" y1="103" x2="50" y2="107" stroke="#ffaa66" stroke-width="2"/>
    <text x="46" y="126" fill="#642" font-size="6" font-family="monospace" text-anchor="middle">FDBK</text>
    <circle cx="72" cy="110" r="10" fill="#100500" stroke="#ff6622" stroke-width="1.5" filter="url(#neonBlur)"/>
    <line x1="72" y1="100" x2="69" y2="104" stroke="#ffaa66" stroke-width="2"/>
    <text x="72" y="126" fill="#642" font-size="6" font-family="monospace" text-anchor="middle">MIX</text>
  </g>

  <!-- FX3: Chorus -->
  <g transform="translate(1082,528)">
    <rect x="0" y="0" width="92" height="128" rx="8" fill="#001a1a" stroke="#00ffee" stroke-width="1.5" filter="url(#neonBlur)"/>
    <rect x="0" y="0" width="92" height="128" rx="8" fill="url(#fx3Grad)" opacity="0.15"/>
    <text x="46" y="16" fill="#00ffee" font-size="8" font-family="monospace" text-anchor="middle" letter-spacing="1">FX3</text>
    <text x="46" y="28" fill="#00ccdd" font-size="7" font-family="monospace" text-anchor="middle">CHORUS</text>
    <!-- Shimmer lines -->
    <line x1="6" y1="42" x2="86" y2="50" stroke="#00ffee" stroke-width="2" filter="url(#neonBlur)" opacity="0.9"/>
    <line x1="6" y1="54" x2="86" y2="58" stroke="#00ddcc" stroke-width="1.5" opacity="0.6"/>
    <line x1="6" y1="66" x2="86" y2="65" stroke="#00ffee" stroke-width="3" filter="url(#neonBlur)" opacity="0.95"/>
    <line x1="6" y1="78" x2="86" y2="72" stroke="#00ddcc" stroke-width="1.5" opacity="0.6"/>
    <line x1="6" y1="90" x2="86" y2="80" stroke="#00ffee" stroke-width="2" filter="url(#neonBlur)" opacity="0.8"/>
    <!-- Knobs -->
    <circle cx="20" cy="112" r="10" fill="#001010" stroke="#00ffee" stroke-width="1.5" filter="url(#neonBlur)"/>
    <line x1="20" y1="102" x2="20" y2="107" stroke="#00ffee" stroke-width="2"/>
    <text x="20" y="128" fill="#046" font-size="6" font-family="monospace" text-anchor="middle">RATE</text>
    <circle cx="46" cy="112" r="10" fill="#001010" stroke="#00ffee" stroke-width="1.5" filter="url(#neonBlur)"/>
    <line x1="53" y1="105" x2="50" y2="109" stroke="#00ffee" stroke-width="2"/>
    <text x="46" y="128" fill="#046" font-size="6" font-family="monospace" text-anchor="middle">DEPTH</text>
    <circle cx="72" cy="112" r="10" fill="#001010" stroke="#00ffee" stroke-width="1.5" filter="url(#neonBlur)"/>
    <line x1="72" y1="102" x2="69" y2="106" stroke="#00ffee" stroke-width="2"/>
    <text x="72" y="128" fill="#046" font-size="6" font-family="monospace" text-anchor="middle">MIX</text>
  </g>

  <!-- FX4: Doubler -->
  <g transform="translate(1082,668)">
    <rect x="0" y="0" width="92" height="120" rx="8" fill="#0e0015" stroke="#cc44ff" stroke-width="1.5" filter="url(#neonBlur)"/>
    <rect x="0" y="0" width="92" height="120" rx="8" fill="url(#fx4Grad)" opacity="0.15"/>
    <text x="46" y="16" fill="#cc44ff" font-size="8" font-family="monospace" text-anchor="middle" letter-spacing="1">FX4</text>
    <text x="46" y="28" fill="#aa33dd" font-size="7" font-family="monospace" text-anchor="middle">DOUBLER</text>
    <!-- Doubler symbol: two overlapping waveforms -->
    <path d="M8,62 C18,45 28,79 38,62 C48,45 58,79 68,62 C78,45 84,62 84,62" fill="none" stroke="#cc44ff" stroke-width="2" filter="url(#neonBlur)"/>
    <path d="M8,68 C18,51 28,85 38,68 C48,51 58,85 68,68 C78,51 84,68 84,68" fill="none" stroke="#9922cc" stroke-width="1.5" opacity="0.6"/>
    <!-- Knobs -->
    <circle cx="20" cy="104" r="10" fill="#080010" stroke="#cc44ff" stroke-width="1.5" filter="url(#neonBlur)"/>
    <line x1="20" y1="94" x2="20" y2="99" stroke="#cc44ff" stroke-width="2"/>
    <text x="20" y="120" fill="#648" font-size="6" font-family="monospace" text-anchor="middle">DLAY</text>
    <circle cx="46" cy="104" r="10" fill="#080010" stroke="#cc44ff" stroke-width="1.5" filter="url(#neonBlur)"/>
    <line x1="53" y1="97" x2="50" y2="101" stroke="#cc44ff" stroke-width="2"/>
    <text x="46" y="120" fill="#648" font-size="6" font-family="monospace" text-anchor="middle">TUNE</text>
    <circle cx="72" cy="104" r="10" fill="#080010" stroke="#cc44ff" stroke-width="1.5" filter="url(#neonBlur)"/>
    <line x1="72" y1="94" x2="69" y2="98" stroke="#cc44ff" stroke-width="2"/>
    <text x="72" y="120" fill="#648" font-size="6" font-family="monospace" text-anchor="middle">MIX</text>
  </g>

  <!-- FX Label on right edge -->
  <text x="1128" y="240" fill="#667" font-size="9" font-family="monospace" text-anchor="middle" letter-spacing="2">FX RACK</text>

  <!-- ===== TEXT: "StageFlow Air" ===== -->

  <!-- Shadow/depth layer -->
  <text x="603" y="806" fill="#000022" font-size="62" font-family="Arial Black, sans-serif" font-weight="900" text-anchor="middle" letter-spacing="4" opacity="0.7">StageFlow</text>
  <text x="603" y="863" fill="#000022" font-size="46" font-family="Arial Black, sans-serif" font-weight="900" text-anchor="middle" letter-spacing="12" opacity="0.7">Air</text>

  <!-- "StageFlow" - blue → orange gradient -->
  <text x="600" y="802" fill="url(#sfGrad)" font-size="62" font-family="Arial Black, sans-serif" font-weight="900" text-anchor="middle" letter-spacing="4" filter="url(#textGlow)">StageFlow</text>
  <!-- "Air" - white with blue glow -->
  <text x="600" y="860" fill="#ffffff" font-size="46" font-family="Arial Black, sans-serif" font-weight="900" text-anchor="middle" letter-spacing="12" filter="url(#textGlow)" style="filter:drop-shadow(0 0 12px #00c8ff) drop-shadow(0 0 24px #00c8ff)">Air</text>

  <!-- Tagline -->
  <text x="600" y="888" fill="#334466" font-size="10" font-family="monospace" text-anchor="middle" letter-spacing="6">PROFESSIONAL LIVE AUDIO CONTROL</text>

  <!-- Decorative line under logo -->
  <line x1="320" y1="870" x2="880" y2="870" stroke="url(#ringGrad)" stroke-width="1" opacity="0.4"/>

  <!-- Power LED top corner -->
  <circle cx="1070" cy="105" r="5" fill="#00ff88" filter="url(#strongGlow)"/>
  <text x="1060" y="120" fill="#00ff88" font-size="7" font-family="monospace" text-anchor="middle">PWR</text>

  <!-- Model badge -->
  <rect x="130" y="96" width="90" height="14" rx="3" fill="#0a0a20"/>
  <text x="175" y="106" fill="#334" font-size="7" font-family="monospace" text-anchor="middle" letter-spacing="1">STAGEFLOW AIR-12</text>
</svg>
